# xmcd
#
# Track frame offsets:
#	150
#	14347
#	27322
#	40056
#	50138
#	59727
#	71405
#	84842
#	97655
#
# Disc length: 1427 seconds
#
# Revision: 1
# Processed by: cddbd v1.5.2PL0 Copyright (c) Steve Scherf et al.
# Submitted via: audiograbber 1.83.01
#
DISCID=6c059109
DTITLE=New Hobbits, The - Back From Middle Earth
DYEAR=1900
DGENRE=Pop
TTITLE0=You Could Have Made It Easy
TTITLE1=Grown Old
TTITLE2=I Could Hear The Grass Grow
TTITLE3=Comin Out
TTITLE4=The Devils Gonna Get Me
TTITLE5=Underground
TTITLE6=Love Can Set You Free
TTITLE7=Flora
TTITLE8=Woman So Worried
EXTD=
EXTT0=
EXTT1=
EXTT2=
EXTT3=
EXTT4=
EXTT5=
EXTT6=
EXTT7=
EXTT8=
PLAYORDER=
